<?xml version="1.0" encoding="iso-8859-1"?>
<!-- Generator: Adobe Illustrator 16.0.0, SVG Export Plug-In . SVG Version: 6.00 Build 0)  -->
<!DOCTYPE svg PUBLIC "-//W3C//DTD SVG 1.1//EN" "http://www.w3.org/Graphics/SVG/1.1/DTD/svg11.dtd">
<svg version="1.1" id="Capa_1" xmlns="http://www.w3.org/2000/svg" xmlns:xlink="http://www.w3.org/1999/xlink" x="0px" y="0px"
	 width="221.627px" height="221.627px" viewBox="0 0 221.627 221.627" style="enable-background:new 0 0 221.627 221.627;"
	 xml:space="preserve">
<g>
	<g>
		<path d="M113.106,74.793L87.032,30.559c-2.076-3.517-6.604-4.683-10.102-2.618c-0.63,0.374-1.078,0.892-1.553,1.397
			c-1.577-8.705-9.158-15.32-18.313-15.32c-9.164,0-16.748,6.609-18.325,15.308c-0.466-0.493-0.917-1.011-1.541-1.385
			c-3.504-2.064-8.025-0.904-10.099,2.618L1.023,74.793c-1.629,2.756-1.285,6.254,0.834,8.641c1.434,1.617,3.461,2.481,5.526,2.481
			c0.996,0,2-0.204,2.962-0.621l19.933-8.714c0.685-0.24,2.987-1.014,6.129-1.912v50.367l-5.873,73.021
			c-0.387,4.859,3.243,9.146,8.117,9.53c0.244,0.012,0.481,0.023,0.719,0.023c4.563,0,8.442-3.501,8.817-8.141l5.313-66.007
			c1.09,0.487,2.292,0.78,3.571,0.78c1.272,0,2.475-0.293,3.568-0.78l5.312,66.007c0.381,4.628,4.25,8.141,8.814,8.141
			c0.238,0,0.475-0.012,0.719-0.023c4.877-0.384,8.503-4.671,8.117-9.53l-5.879-73.021V74.668c3.148,0.898,5.443,1.671,6.128,1.912
			l19.936,8.714c0.953,0.411,1.958,0.621,2.962,0.621c2.064,0,4.083-0.871,5.523-2.481
			C114.391,81.047,114.732,77.549,113.106,74.793z M59.896,56.565l-1.851,3.705H58l4.972,38.703l-5.9,10.303l-5.903-10.303
			l4.969-38.703h-0.055l-1.848-3.705c-12.96,0.657-26.978,5.432-28.948,6.132l14.103-23.934c2.433,8.406,9.377,16.164,17.683,16.164
			c8.293,0,15.241-7.77,17.67-16.176l14.106,23.946C86.844,61.984,72.848,57.223,59.896,56.565z"/>
		<path d="M124.182,104.109h26.02c1.856,0,3.367-1.507,3.367-3.352v-0.42c0-1.857-1.511-3.379-3.367-3.379h-26.02
			c-1.851,0-3.367,1.522-3.367,3.379v0.411C120.815,102.603,122.332,104.109,124.182,104.109z"/>
		<path d="M124.182,112.734h26.02c1.856,0,3.367-1.51,3.367-3.367v-0.408c0-1.863-1.511-3.37-3.367-3.37h-26.02
			c-1.851,0-3.367,1.507-3.367,3.37v0.408C120.815,111.219,122.332,112.734,124.182,112.734z"/>
		<path d="M124.182,121.351h26.02c1.856,0,3.367-1.504,3.367-3.36v-0.421c0-1.851-1.511-3.361-3.367-3.361h-26.02
			c-1.851,0-3.367,1.511-3.367,3.361v0.421C120.815,119.847,122.332,121.351,124.182,121.351z"/>
		<path d="M124.182,129.967h26.02c1.856,0,3.367-1.51,3.367-3.349v-0.427c0-1.851-1.511-3.373-3.367-3.373h-26.02
			c-1.851,0-3.367,1.522-3.367,3.373v0.427C120.815,128.457,122.332,129.967,124.182,129.967z"/>
		<path d="M169.68,102.186l-13.013,22.533c-0.925,1.601-0.377,3.665,1.225,4.591l0.365,0.219c1.602,0.907,3.678,0.366,4.598-1.242
			l13.019-22.529c0.913-1.602,0.365-3.678-1.236-4.601l-0.372-0.207C172.676,100.033,170.606,100.581,169.68,102.186z"/>
		<path d="M175.447,109.367c0,1.857,1.51,3.367,3.355,3.367h26.031c1.845,0,3.354-1.51,3.354-3.367v-0.408
			c0-1.863-1.51-3.37-3.354-3.37h-26.031c-1.846,0-3.355,1.507-3.355,3.37V109.367z"/>
		<path d="M208.188,117.569c0-1.851-1.51-3.361-3.354-3.361h-26.031c-1.846,0-3.355,1.511-3.355,3.361v0.421
			c0,1.856,1.51,3.36,3.355,3.36h26.031c1.845,0,3.354-1.504,3.354-3.36V117.569z"/>
		<path d="M204.833,122.818h-26.031c-1.846,0-3.355,1.522-3.355,3.373v0.427c0,1.839,1.51,3.349,3.355,3.349h26.031
			c1.845,0,3.354-1.51,3.354-3.349v-0.427C208.188,124.341,206.678,122.818,204.833,122.818z"/>
		<path d="M138.589,81.488h27.688c2.387,0,4.323-1.939,4.323-4.32V47.913c0-2.39-1.942-4.323-4.323-4.323h-0.64v2.36
			c0,1.071-0.858,1.939-1.924,1.939c-1.06,0-1.931-0.868-1.931-1.939v-2.36h-3.678v2.36c0,1.071-0.858,1.939-1.918,1.939
			c-1.065,0-1.937-0.868-1.937-1.939v-2.36h-3.653v2.36c0,1.071-0.858,1.939-1.924,1.939c-1.072,0-1.943-0.868-1.943-1.939v-2.36
			h-3.671v2.36c0,1.071-0.859,1.939-1.925,1.939s-1.924-0.868-1.924-1.939v-2.36h-0.634c-2.387,0-4.329,1.942-4.329,4.323v29.255
			C134.26,79.549,136.203,81.488,138.589,81.488z M135.996,54.589c0-1.428,1.169-2.594,2.594-2.594h27.688
			c1.425,0,2.594,1.172,2.594,2.594v22.573c0,1.428-1.175,2.594-2.594,2.594h-27.688c-1.425,0-2.594-1.166-2.594-2.594V54.589z"/>
		<path d="M142.249,73.664c0.451,0.475,0.999,0.828,1.669,1.084c0.651,0.255,1.412,0.38,2.265,0.38c0.755,0,1.443-0.119,2.07-0.341
			c0.646-0.231,1.182-0.582,1.639-1.017c0.45-0.436,0.81-0.98,1.065-1.617c0.256-0.621,0.384-1.352,0.384-2.143
			c0-0.594-0.067-1.136-0.195-1.602c-0.134-0.475-0.316-0.904-0.554-1.26c-0.231-0.369-0.506-0.667-0.828-0.917
			c-0.323-0.256-0.664-0.451-1.048-0.606v-0.095c0.329-0.191,0.646-0.398,0.926-0.654c0.28-0.243,0.529-0.53,0.725-0.853
			c0.201-0.326,0.371-0.688,0.481-1.099c0.121-0.411,0.183-0.877,0.183-1.41c0-0.792-0.122-1.495-0.359-2.119
			c-0.237-0.603-0.579-1.12-1.011-1.534c-0.427-0.411-0.95-0.722-1.547-0.94c-0.615-0.204-1.272-0.311-2.016-0.311
			c-0.706,0-1.37,0.118-1.973,0.341c-0.597,0.231-1.114,0.569-1.553,0.992c-0.427,0.423-0.762,0.947-1.005,1.559
			c-0.237,0.593-0.365,1.266-0.365,2.012v0.731h3.258v-0.5c0-0.84,0.14-1.458,0.426-1.888c0.286-0.42,0.7-0.63,1.236-0.63
			c0.505,0,0.913,0.198,1.199,0.578c0.293,0.387,0.438,0.993,0.438,1.836c0,0.448-0.055,0.853-0.134,1.209
			c-0.098,0.35-0.226,0.636-0.384,0.867c-0.152,0.229-0.347,0.396-0.56,0.518c-0.214,0.104-0.445,0.162-0.688,0.162h-0.913v2.637
			h0.864c0.28,0,0.555,0.048,0.798,0.131c0.262,0.094,0.487,0.231,0.682,0.435c0.201,0.207,0.365,0.494,0.469,0.868
			c0.122,0.368,0.171,0.816,0.171,1.385c0,0.904-0.177,1.571-0.529,1.994c-0.366,0.423-0.835,0.648-1.419,0.648
			c-0.658,0-1.157-0.231-1.492-0.704c-0.329-0.462-0.481-1.117-0.481-1.96v-0.554h-3.264v0.475c0,0.816,0.116,1.559,0.348,2.213
			C141.463,72.635,141.81,73.201,142.249,73.664z"/>
		<path d="M157.179,72.181h-4.013v2.637h10.82v-2.637h-3.684V56.928h-1.541c-0.414,0.262-0.876,0.505-1.37,0.736
			c-0.499,0.217-1.011,0.424-1.516,0.6c-0.506,0.186-1.005,0.329-1.474,0.435c-0.481,0.119-0.896,0.198-1.267,0.244v2.088h4.037
			v11.149H157.179z"/>
		<polygon points="221.627,140.453 221.627,135.18 211.013,128.311 218.509,135.18 110.509,135.18 118.001,128.311 107.371,135.18 
			107.371,140.453 118.001,140.453 118.001,172.141 115.365,172.141 115.365,175.112 111.431,175.112 111.431,178.047 
			217.583,178.047 217.583,175.112 213.638,175.112 213.638,172.141 211.013,172.141 211.013,140.453 		"/>
	</g>
</g>
<g>
</g>
<g>
</g>
<g>
</g>
<g>
</g>
<g>
</g>
<g>
</g>
<g>
</g>
<g>
</g>
<g>
</g>
<g>
</g>
<g>
</g>
<g>
</g>
<g>
</g>
<g>
</g>
<g>
</g>
</svg>
